<?xml version="1.0" standalone="no"?>
<!DOCTYPE svg PUBLIC "-//W3C//DTD SVG 20010904//EN"
 "http://www.w3.org/TR/2001/REC-SVG-20010904/DTD/svg10.dtd">
<svg version="1.0" xmlns="http://www.w3.org/2000/svg"
 width="100.000000pt" height="100.000000pt" viewBox="0 0 100.000000 100.000000"
 preserveAspectRatio="xMidYMid meet">
<metadata>
Created by potrace 1.11, written by Peter Selinger 2001-2013
</metadata>
<g transform="translate(0.000000,100.000000) scale(0.100000,-0.100000)"
fill="#000000" stroke="none">
<path d="M379 985 c-213 -57 -363 -239 -375 -455 -8 -151 38 -272 145 -380
108 -107 221 -151 376 -145 184 7 346 114 424 279 45 96 51 145 51 442 l0 275
-287 -2 c-194 -1 -303 -5 -334 -14z m431 -192 c5 -158 -2 -347 -14 -386 -18
-60 -64 -122 -121 -162 -193 -137 -468 -5 -483 233 -7 111 37 208 127 274 67
49 107 57 309 57 167 1 182 0 182 -16z"/>
</g>
</svg>
