<svg width="28" height="28" viewBox="0 0 28 28" fill="none" xmlns="http://www.w3.org/2000/svg">
<path d="M24.1881 0.12793H3.76923C1.69231 0.12793 0 1.80708 0 3.88683V24.2497C0 26.3209 1.68376 28.0086 3.76923 28.0086H13.8376L13.8547 18.0445H11.2564C10.9231 18.0445 10.6496 17.7718 10.641 17.4393L10.6325 14.2259C10.6325 13.885 10.906 13.6123 11.2479 13.6123H13.8376V10.5097C13.8376 6.91271 16.0428 4.95228 19.265 4.95228H21.906C22.2479 4.95228 22.5214 5.22504 22.5214 5.56598V8.26796C22.5214 8.6089 22.2479 8.88166 21.906 8.88166H20.2821C18.5299 8.88166 18.1881 9.70845 18.1881 10.9273V13.6123H22.0342C22.4017 13.6123 22.6838 13.9276 22.6411 14.2941L22.2564 17.5075C22.2222 17.8144 21.9573 18.0445 21.6496 18.0445H18.1966L18.1795 28.0086H24.171C26.2479 28.0086 27.9402 26.3295 27.9402 24.2497V3.88683C27.9573 1.80708 26.265 0.12793 24.1881 0.12793Z" fill="#17171E"/>
</svg>
