<svg width="167" height="200" viewBox="0 0 167 200" fill="none" xmlns="http://www.w3.org/2000/svg">
<path d="M18.6262 0.85L0.451442 32.55C0.150481 33.0667 0 33.6333 0 34.2333V165.767C0 166.35 0.150481 166.933 0.451442 167.45L18.6262 199.15C18.9271 199.683 19.4956 200 20.0975 200H146.902C147.504 200 148.073 199.667 148.374 199.15L166.549 167.45C166.85 166.933 167 166.367 167 165.767V34.2333C167 33.65 166.85 33.0667 166.549 32.55L148.374 0.85C148.073 0.333333 147.504 0 146.902 0H20.0975C19.4789 0 18.9271 0.333333 18.6262 0.85ZM36.4665 28.5667H69.8564C70.7927 28.5667 71.5619 29.3167 71.5619 30.2667V82.6667C71.5619 82.9833 71.4783 83.2833 71.3111 83.5667L30.2299 149.533C29.7784 150.25 28.6582 149.933 28.6582 149.083V40.9333C28.6582 40.6333 28.7418 40.35 28.8755 40.1L34.9951 29.4333C35.2961 28.9 35.8645 28.5667 36.4665 28.5667ZM45.5622 170.167L69.9735 127.583C70.4082 126.833 71.5619 127.133 71.5619 128V169.733C71.5619 170.667 70.8095 171.433 69.8564 171.433H46.2979C45.6458 171.433 45.2445 170.733 45.5622 170.167ZM95.4381 169.733V128.05C95.4381 127.183 96.5918 126.883 97.0265 127.633L121.304 170.167C121.622 170.733 121.22 171.433 120.568 171.433H97.1436C96.2072 171.433 95.4381 170.667 95.4381 169.733ZM136.753 149.85L95.6889 83.6C95.5217 83.3333 95.4381 83.0167 95.4381 82.7167V30.2667C95.4381 29.3333 96.1905 28.5667 97.1436 28.5667H130.534C131.135 28.5667 131.704 28.9 132.005 29.4167L138.124 40.0833C138.275 40.3333 138.342 40.6333 138.342 40.9167V149.4C138.325 150.25 137.205 150.567 136.753 149.85Z" fill="#17171E"/>
</svg>
