<svg width="1380" height="319" viewBox="0 0 1380 319" fill="none" xmlns="http://www.w3.org/2000/svg">
<g clip-path="url(#clip0)">
<path d="M1120.68 255.064L1110.79 272.068C1110.33 272.862 1109.41 273.429 1108.37 273.429H1025.8C1024.77 273.429 1023.96 272.862 1023.39 272.068L1013.5 255.064C1013.27 254.611 1013.15 254.157 1013.15 253.704V2.72068C1013.15 1.24698 1011.89 0 1010.39 0H969.681C968.186 0 966.921 1.24698 966.921 2.72068V264.473C966.921 265.38 967.151 266.287 967.611 267.194L996.936 317.753C997.396 318.547 998.316 319.113 999.351 319.113H1134.82C1135.86 319.113 1136.66 318.547 1137.24 317.753L1166.56 267.194C1167.02 266.4 1167.25 265.493 1167.25 264.473V2.72068C1167.25 1.24698 1165.99 0 1164.49 0H1123.78C1122.29 0 1121.02 1.24698 1121.02 2.72068V253.817C1121.14 254.157 1120.91 254.724 1120.68 255.064Z" fill="#17171E"/>
<path d="M699.544 1.36034L670.219 51.9197C669.759 52.7132 669.529 53.6201 669.529 54.6404V264.473C669.529 265.38 669.759 266.287 670.219 267.194L699.544 317.753C700.004 318.547 700.924 319.113 701.959 319.113H906.544C907.579 319.113 908.384 318.547 908.959 317.753L938.284 267.194C938.744 266.4 938.974 265.493 938.974 264.473V54.6404C938.974 53.7335 938.744 52.8266 938.284 51.9197L908.844 1.36034C908.384 0.566809 907.464 0 906.429 0H701.959C700.924 0 700.004 0.566809 699.544 1.36034ZM728.409 45.5714H782.229C783.724 45.5714 784.989 46.8184 784.989 48.2921V131.84C784.989 132.293 784.874 132.86 784.529 133.313L718.289 238.513C717.599 239.647 715.759 239.193 715.759 237.833V65.2964C715.759 64.8429 715.874 64.3895 716.104 63.936L725.994 46.9318C726.454 46.1382 727.374 45.5714 728.409 45.5714ZM743.014 271.388L782.344 203.484C783.034 202.237 784.874 202.804 784.874 204.165V270.708C784.874 272.182 783.609 273.429 782.114 273.429H744.164C743.129 273.429 742.554 272.295 743.014 271.388ZM823.514 270.708V204.165C823.514 202.804 825.354 202.237 826.044 203.484L865.144 271.275C865.719 272.182 865.029 273.315 863.994 273.315H826.159C824.664 273.429 823.514 272.182 823.514 270.708ZM890.099 238.967L823.859 133.313C823.629 132.86 823.399 132.407 823.399 131.84V48.2921C823.399 46.8184 824.664 45.5714 826.159 45.5714H879.979C881.014 45.5714 881.819 46.1382 882.394 46.9318L892.284 63.936C892.514 64.3895 892.629 64.8429 892.629 65.2964V238.286C892.629 239.647 890.904 240.214 890.099 238.967Z" fill="#17171E"/>
<path d="M1347.57 0H1198.07C1196.57 0 1195.31 1.24698 1195.31 2.72068V316.279C1195.31 317.753 1196.57 319 1198.07 319H1238.78C1240.27 319 1241.54 317.753 1241.54 316.279V200.197C1241.54 198.723 1242.8 197.476 1244.3 197.476H1347.57C1348.6 197.476 1349.41 196.909 1349.98 196.116L1379.31 145.557C1379.77 144.763 1380 143.856 1380 142.836V54.6404C1380 53.7335 1379.77 52.8266 1379.31 51.9197L1349.98 1.36034C1349.52 0.566809 1348.6 0 1347.57 0ZM1333.42 133.54L1323.53 150.544C1323.07 151.338 1322.15 151.905 1321.12 151.905H1244.3C1242.8 151.905 1241.54 150.658 1241.54 149.184V48.2921C1241.54 46.8184 1242.8 45.5714 1244.3 45.5714H1321.12C1322.15 45.5714 1322.96 46.1382 1323.53 46.9318L1333.42 63.936C1333.65 64.3895 1333.77 64.8429 1333.77 65.2964V132.18C1333.77 132.633 1333.65 133.087 1333.42 133.54Z" fill="#17171E"/>
<path d="M30.015 1.36034L0.69 51.9197C0.23 52.7132 0 53.6201 0 54.6404V264.473C0 265.38 0.23 266.287 0.69 267.194L30.015 317.753C30.475 318.547 31.395 319.113 32.43 319.113H167.9C168.935 319.113 169.74 318.547 170.315 317.753L199.64 267.194C200.1 266.4 200.33 265.493 200.33 264.473V124.244C200.33 122.771 199.065 121.524 197.57 121.524H184.92H154.1H118.335C116.84 121.524 115.575 122.771 115.575 124.244V164.375C115.575 165.848 116.84 167.095 118.335 167.095H151.34C152.835 167.095 154.1 168.342 154.1 169.816V249.963C154.1 250.416 153.985 250.87 153.755 251.323L141.68 272.068C141.22 272.862 140.3 273.429 139.265 273.429H61.065C60.03 273.429 59.225 272.862 58.65 272.068L46.575 251.21C46.345 250.756 46.23 250.303 46.23 249.849V65.2964C46.23 64.8429 46.345 64.3895 46.575 63.936L56.465 46.9318C56.925 46.1382 57.845 45.5714 58.88 45.5714H141.565C142.6 45.5714 143.405 46.1382 143.98 46.9318L153.87 63.936C154.1 64.3895 154.215 64.8429 154.215 65.2964V91.1429C154.215 92.6166 155.48 93.8635 156.975 93.8635H197.685C199.18 93.8635 200.445 92.6166 200.445 91.1429V54.6404C200.445 53.7335 200.215 52.8266 199.755 51.9197L170.315 1.36034C169.855 0.566809 168.935 0 167.9 0H32.43C31.395 0 30.475 0.566809 30.015 1.36034Z" fill="#17171E"/>
<path d="M258.405 1.36034L229.08 51.9197C228.62 52.7132 228.39 53.6201 228.39 54.6404V264.473C228.39 265.38 228.62 266.287 229.08 267.194L258.405 317.753C258.865 318.547 259.785 319.113 260.82 319.113H396.29C397.325 319.113 398.13 318.547 398.705 317.753L428.03 267.194C428.49 266.4 428.72 265.493 428.72 264.473V124.244C428.72 122.771 427.455 121.524 425.96 121.524H413.31H382.49H346.725C345.23 121.524 343.965 122.771 343.965 124.244V164.375C343.965 165.848 345.23 167.095 346.725 167.095H379.73C381.225 167.095 382.49 168.342 382.49 169.816V249.963C382.49 250.416 382.375 250.87 382.145 251.323L370.07 272.068C369.61 272.862 368.69 273.429 367.655 273.429H289.34C288.305 273.429 287.5 272.862 286.925 272.068L274.85 251.21C274.62 250.756 274.505 250.303 274.505 249.849V65.2964C274.505 64.8429 274.62 64.3895 274.85 63.936L284.74 46.9318C285.2 46.1382 286.12 45.5714 287.155 45.5714H369.84C370.875 45.5714 371.68 46.1382 372.255 46.9318L382.145 63.936C382.375 64.3895 382.49 64.8429 382.49 65.2964V91.1429C382.49 92.6166 383.755 93.8635 385.25 93.8635H425.96C427.455 93.8635 428.72 92.6166 428.72 91.1429V54.6404C428.72 53.7335 428.49 52.8266 428.03 51.9197L398.705 1.36034C398.245 0.566809 397.325 0 396.29 0H260.82C259.9 0 258.98 0.566809 258.405 1.36034Z" fill="#17171E"/>
<path d="M577.645 169.136C577.07 168.229 577.76 167.095 578.795 167.095H608.925C609.96 167.095 610.765 166.528 611.34 165.735L640.665 115.176C641.125 114.382 641.355 113.475 641.355 112.455V54.6404C641.355 53.7335 641.125 52.8266 640.665 51.9197L611.455 1.36034C610.995 0.566809 610.075 0 609.04 0H459.54C458.045 0 456.78 1.24698 456.78 2.72068V316.279C456.78 317.753 458.045 319 459.54 319H500.25C501.745 319 503.01 317.753 503.01 316.279V169.816C503.01 168.342 504.275 167.095 505.77 167.095H524.745C525.78 167.095 526.585 167.662 527.16 168.456L613.64 317.64C614.1 318.433 615.02 319 616.055 319H646.76C648.255 319 649.52 317.753 649.52 316.279V294.401C649.52 293.494 649.29 292.587 648.83 291.68L577.645 169.136ZM505.77 121.524C504.275 121.524 503.01 120.277 503.01 118.803V48.2921C503.01 46.8184 504.275 45.5714 505.77 45.5714H582.59C583.625 45.5714 584.43 46.1382 585.005 46.9318L594.895 63.936C595.125 64.3895 595.24 64.8429 595.24 65.2964V101.799C595.24 102.252 595.125 102.706 594.895 103.159L585.005 120.163C584.545 120.957 583.625 121.524 582.59 121.524H505.77Z" fill="#17171E"/>
</g>
<defs>
<clipPath id="clip0">
<rect width="1380" height="319" fill="white"/>
</clipPath>
</defs>
</svg>
