<svg width="28" height="28" viewBox="0 0 28 28" fill="none" xmlns="http://www.w3.org/2000/svg">
<path d="M13.9744 0.12793C10.1795 0.12793 9.70086 0.144977 8.21368 0.213166C6.7265 0.281354 5.7094 0.511491 4.82051 0.860959C3.89744 1.21895 3.11966 1.69627 2.34188 2.47192C1.5641 3.24756 1.08547 4.02321 0.726496 4.94376C0.384615 5.82169 0.153846 6.836 0.0854701 8.3191C0.017094 9.80221 0 10.2795 0 14.064C0 17.8485 0.017094 18.3258 0.0854701 19.8089C0.153846 21.292 0.393162 22.3063 0.735043 23.1928C1.09402 24.1133 1.57265 24.889 2.35043 25.6646C3.12821 26.4403 3.90598 26.9176 4.82906 27.2756C5.71795 27.6165 6.73504 27.8552 8.22222 27.9234C9.7094 27.9916 10.188 28.0086 13.9829 28.0086C17.7778 28.0086 18.2564 27.9916 19.7436 27.9234C21.2308 27.8552 22.2479 27.6165 23.1368 27.2756C24.0598 26.9176 24.8376 26.4403 25.6154 25.6646C26.3932 24.889 26.8718 24.1133 27.2308 23.1928C27.5727 22.3063 27.812 21.292 27.8803 19.8089C27.9487 18.3258 27.9658 17.8485 27.9658 14.064C27.9658 10.2795 27.9487 9.80221 27.8803 8.3191C27.812 6.836 27.5727 5.82169 27.2308 4.93524C26.8718 4.01469 26.3932 3.23904 25.6154 2.46339C24.8376 1.68775 24.0598 1.21043 23.1368 0.852435C22.2479 0.511491 21.2308 0.272831 19.7436 0.204642C18.2479 0.144977 17.7692 0.12793 13.9744 0.12793ZM13.9744 2.64239C17.7094 2.64239 18.1453 2.65944 19.6239 2.72763C20.9829 2.78729 21.7265 3.01743 22.2222 3.20495C22.8718 3.46065 23.3419 3.75898 23.8291 4.24482C24.3162 4.73067 24.6239 5.19947 24.8718 5.84726C25.0598 6.34163 25.2906 7.07466 25.3504 8.43843C25.4188 9.90449 25.4359 10.3477 25.4359 14.0725C25.4359 17.7973 25.4188 18.232 25.3504 19.7066C25.2906 21.0619 25.0598 21.8034 24.8718 22.2978C24.6154 22.9456 24.3162 23.4144 23.8291 23.9002C23.3419 24.3861 22.8718 24.6929 22.2222 24.9401C21.7265 25.1276 20.9915 25.3578 19.6239 25.4174C18.1538 25.4856 17.7094 25.5027 13.9744 25.5027C10.2393 25.5027 9.80342 25.4856 8.32479 25.4174C6.96581 25.3578 6.22222 25.1276 5.7265 24.9401C5.07692 24.6844 4.60684 24.3861 4.11966 23.9002C3.63248 23.4144 3.32479 22.9456 3.07692 22.2978C2.88889 21.8034 2.65812 21.0704 2.59829 19.7066C2.52991 18.2406 2.51282 17.7973 2.51282 14.0725C2.51282 10.3477 2.52991 9.91301 2.59829 8.43843C2.65812 7.07466 2.88889 6.3331 3.07692 5.84726C3.33333 5.19947 3.63248 4.73067 4.11966 4.24482C4.60684 3.75898 5.07692 3.45213 5.7265 3.20495C6.22222 3.01743 6.95727 2.78729 8.32479 2.72763C9.80342 2.65091 10.2479 2.64239 13.9744 2.64239Z" fill="#17171E"/>
<path d="M13.9744 18.7095C11.4018 18.7095 9.31629 16.6297 9.31629 14.0641C9.31629 11.4985 11.4018 9.41878 13.9744 9.41878C16.5471 9.41878 18.6325 11.4985 18.6325 14.0641C18.6325 16.6297 16.5471 18.7095 13.9744 18.7095ZM13.9744 6.91284C10.0086 6.91284 6.79492 10.1177 6.79492 14.0727C6.79492 18.0276 10.0086 21.2325 13.9744 21.2325C17.9402 21.2325 21.1539 18.0276 21.1539 14.0727C21.1539 10.1092 17.9402 6.91284 13.9744 6.91284Z" fill="#17171E"/>
<path d="M23.1102 6.62277C23.1102 7.54332 22.3581 8.2934 21.435 8.2934C20.5119 8.2934 19.7598 7.54332 19.7598 6.62277C19.7598 5.70222 20.5119 4.95215 21.435 4.95215C22.3581 4.95215 23.1102 5.70222 23.1102 6.62277Z" fill="#17171E"/>
</svg>
