<svg width="29" height="28" viewBox="0 0 29 28" fill="none" xmlns="http://www.w3.org/2000/svg">
<path d="M21.0256 10.8591L21.0342 11.3023C21.0342 15.8539 17.5556 21.1129 11.1966 21.1129C9.24786 21.1129 7.42735 20.5419 5.89744 19.5616C6.16239 19.5957 6.43589 19.6128 6.71795 19.6128C8.34188 19.6128 9.82905 19.0588 11.0085 18.1382C9.49572 18.1126 8.22222 17.1154 7.77778 15.7431C7.99145 15.7857 8.20512 15.8027 8.42735 15.8027C8.74359 15.8027 9.05128 15.7601 9.33333 15.6834C7.75213 15.368 6.5641 13.9787 6.5641 12.3081V12.2654C7.02563 12.5212 7.55555 12.6746 8.11966 12.6916C7.19658 12.0779 6.58974 11.0125 6.58974 9.8277C6.58974 9.19696 6.76068 8.6003 7.05983 8.08889C8.75213 10.1772 11.3077 11.5409 14.1795 11.6858C14.1197 11.4387 14.094 11.1744 14.094 10.9017C14.094 9.00091 15.6325 7.45814 17.547 7.45814C18.5385 7.45814 19.4359 7.8758 20.0769 8.54064C20.8547 8.38721 21.5983 8.10594 22.2735 7.71385C22.0171 8.51507 21.4701 9.18843 20.7521 9.62314C21.453 9.5379 22.1197 9.35038 22.7436 9.07763C22.282 9.76804 21.6923 10.3732 21.0256 10.8591ZM22.8034 0H5.25641C2.35043 0 0 2.35251 0 5.24201V22.7409C0 25.6475 2.35897 28 5.25641 28H22.8034C25.7179 28 28.0769 25.6475 28.0769 22.7409V5.24201C28.0769 2.35251 25.7179 0 22.8034 0Z" fill="#17171E"/>
</svg>
